# xmcd CD database file
#
# Track frame offsets:
#	150
#	13338
#	26501
#	41366
#	54050
#	63775
#	80895
#	93564
#	105321
#	120850
#	130044
#	146230
#	164194
#	176635
#	187028
#	200599
#	212875
#	226568
#	240679
#	253240
#	265212
#	278786
#	292725
#	304437
#	318387
#
# Disc length: 4406 seconds
#
# Revision: 1
# Processed by: cddbd v1.5.2PL0 Copyright (c) Steve Scherf et al.
# Submitted via: CDex 1.51
#
DISCID=69113419
DTITLE=Dalida - 2009 Deutsch Gesang - Ihre grossen Erfolge Vol.1
DYEAR=1900
DGENRE=
TTITLE0=Am Tag, als der Regen kam
TTITLE1=Tschau Tschau Bambina
TTITLE2=Wenn Die Soldaten
TTITLE3=Du Bist Gegangen
TTITLE4=Pépé
TTITLE5=Milord
TTITLE6=Rosen Im Dezember
TTITLE7=Das Mädchen Von Piräus
TTITLE8=Romantica
TTITLE9=Melodie Poesie
TTITLE10=Mein blauer Luftballon
TTITLE11=Am jenem Tag
TTITLE12=Melodie Aus Alter Zeit
TTITLE13=Aïe Mon Coeur
TTITLE14=Orfeo
TTITLE15=Der Joe hat mir das Herz gestohlen
TTITLE16=Was wird mein Charly tun
TTITLE17=Komm Senorita Komm
TTITLE18=Parlez-Moi d'Amour
TTITLE19=Hello Boy
TTITLE20=Ich fand ein Herz in Portofino
TTITLE21=Abschiedsmelodie
TTITLE22=Glaub an mich
TTITLE23=Ich werde warten
TTITLE24=Ich war ein Narr
EXTD=
EXTT0=
EXTT1=
EXTT2=
EXTT3=
EXTT4=
EXTT5=
EXTT6=
EXTT7=
EXTT8=
EXTT9=
EXTT10=
EXTT11=
EXTT12=
EXTT13=
EXTT14=
EXTT15=
EXTT16=
EXTT17=
EXTT18=
EXTT19=
EXTT20=
EXTT21=
EXTT22=
EXTT23=
EXTT24=
PLAYORDER=
